<?xml version="1.0" encoding="UTF-8"?>
<svg xmlns="http://www.w3.org/2000/svg" viewBox="0 0 945.85 1101.63">
  <defs>
    <style>
      .cls-1 {
        fill: #4d4d4d;
      }

      .cls-2 {
        isolation: isolate;
      }

      .cls-3, .cls-4 {
        mix-blend-mode: multiply;
      }

      .cls-3, .cls-5 {
        fill: #e83c3f;
      }

      .cls-4 {
        fill: #91242a;
      }
    </style>
  </defs>
  <g class="cls-2">
    <g id="ROJO_Y_GRIS" data-name="ROJO Y GRIS">
      <path class="cls-1" d="M439.76,942.68l68.95-42.98c.36-.22.77-.34,1.19-.34,27.98-.57,83.34-37.7,89.21-66.36.41-1.99-1.75-3.52-3.52-2.53l-12.87,7.22c-2.5,1.4-.87,5.2,1.87,4.37,30.37-9.17,59.16-21.98,85.86-37.93.94-.56,2.14-.42,2.91.36l30.71,30.71c20.74,20.74,54.67,20.74,75.41,0l54.04-54.04c21.67-21.67,21.67-57.12,0-78.79l-29.02-29.02c-.77-.77-.92-1.97-.36-2.91,18.92-31.67,33.42-66.28,42.67-102.98.27-1.06,1.22-1.81,2.31-1.81h41.02c30.64,0,55.71-25.07,55.71-55.71v-74.04c0-30.64-25.07-55.71-55.71-55.71h-41.02c-1.09,0-2.04-.74-2.31-1.81-9.25-36.7-23.75-71.31-42.67-102.98-.56-.94-.42-2.14.36-2.91l29.02-29.02c21.67-21.67,21.67-57.12,0-78.79l-54.04-54.04c-20.74-20.74-54.67-20.74-75.41,0l-30.71,30.71c-.77.77-1.97.92-2.91.36-31.67-18.92-66.28-33.42-102.98-42.67-1.06-.27-1.81-1.22-1.81-2.31v-41.02c0-30.64-25.07-55.71-55.71-55.71h-74.04c-30.64,0-55.71,25.07-55.71,55.71v41.02c0,1.09-.74,2.04-1.81,2.31-36.7,9.25-71.31,23.75-102.98,42.67-.94.56-2.14.42-2.91-.36l-30.71-30.71c-20.74-20.74-54.67-20.74-75.41,0l-55.73,55.73c-20.74,20.74-20.74,54.67,0,75.41l30.71,30.71c.77.77.92,1.97.36,2.91-18.92,31.67-33.42,66.28-42.67,102.98-.27,1.06-1.22,1.81-2.31,1.81h-41.02c-30.64,0-55.71,25.07-55.71,55.71v74.04c0,30.64,25.07,55.71,55.71,55.71h41.02c1.09,0,2.04.74,2.31,1.81,9.25,36.7,23.75,71.31,42.67,102.98.56.94.42,2.14-.36,2.91l-30.71,30.71c-20.74,20.74-20.74,54.67,0,75.41l55.73,55.73c20.74,20.74,54.67,20.74,75.41,0l30.71-30.71c.77-.77,1.97-.92,2.91-.36,31.67,18.92,66.28,33.42,102.98,42.67,1.06.27,1.81,1.22,1.81,2.31l41.76,49.38c0,29.09,70.99,2.78,100,3.15.46,0-79.26,39.59-82.2,41.04ZM510.15,724.09c-154.01,21.89-286.39-94.62-290.93-243.29-4.45-145.79,115.79-266.03,261.58-261.58,148.67,4.53,265.17,136.92,243.29,290.93-15.73,110.7-103.25,198.21-213.94,213.94Z"/>
      <g>
        <path class="cls-5" d="M494.18,1074.7c.13.49,2.06-1.56,4.83-4.68-3.43,2.03-5.22,3.25-5.22,3.25l.39,1.43Z"/>
        <path class="cls-5" d="M522.15,1049.85c-1.69-4.76-15.59,11.69-23.14,20.17,2.41-1.42,5.63-3.24,9.62-5.33,7.22-6.07,14.36-12.46,13.52-14.84Z"/>
        <path class="cls-3" d="M775.95,1089.12c10.89-12.75,21.33-25.9,31.83-39.01,4.67-5.83,1.1-14.52-6.32-15.37-45.85-5.3-110.58-9.69-164.11-5.59-61.65,4.72-106.81,24.1-128.72,35.55-7.09,5.96-14.25,11.62-13.98,12.85,4.61,21.65,15.9,9.81,16.97,9.83,2.65.04-1.66,12.99,1.23,13.03,59.34.85,171.03,1.24,238.04,1.23,9.11,0,17.76-3.97,23.69-10.89.46-.54.92-1.07,1.38-1.61Z"/>
        <path class="cls-4" d="M775.95,1089.12c10.89-12.75,21.33-25.9,31.83-39.01,4.67-5.83,1.1-14.52-6.32-15.37-45.85-5.3-110.58-9.69-164.11-5.59-61.65,4.72-106.81,24.1-128.72,35.55-7.09,5.96-14.25,11.62-13.98,12.85,4.61,21.65,15.9,9.81,16.97,9.83,2.65.04-1.66,12.99,1.23,13.03,59.34.85,171.03,1.24,238.04,1.23,9.11,0,17.76-3.97,23.69-10.89.46-.54.92-1.07,1.38-1.61Z"/>
        <path class="cls-3" d="M796.49,922.04s22.53-28.17,10.43-34.97c-5.91-3.78-132.41-3.37-222.45,17.05-86.97,19.72-134.87,63.98-134.87,63.98l.52,1.69c.75,1.74,1.47-.16,4.71,5.94,2.34,4.41,6.03,12.9,7.63,14.89,1.08,1.35,3.56,3.25,4.62,3.11,83.99-10.94,296.7-42.89,296.7-42.89l32.72-28.8Z"/>
        <path class="cls-4" d="M796.49,922.04s22.53-28.17,10.43-34.97c-5.91-3.78-132.41-3.37-222.45,17.05-86.97,19.72-133.01,62.38-133.01,62.38l.14,3.12c.75,1.74,0,0,3.24,6.1,2.34,4.41,6.03,12.9,7.63,14.89,1.08,1.35,3.56,3.25,4.62,3.11,83.99-10.94,296.7-42.89,296.7-42.89l32.72-28.8Z"/>
        <path class="cls-5" d="M810.49,586.54c26.19,30.8,29.09,90.08-3.93,151.34-6.89,12.77-28.38,44.36-39.53,53.65-25.96,21.62-66.21,48.97-69.2,51.07-.03,0-18.66,15.98-24.74,19.96-1.75,1.16-3.49,2.29-5.25,3.42h-.03c-.14.09-.27.2-.41.27h-.03c-.92.61-1.81,1.19-2.74,1.76-19.67,12.52-39.47,23.77-58.71,33.89h-.03c-9.2,4.81-18.21,9.36-27.02,13.65t-.06.02c-2.98,1.43-5.93,2.85-8.86,4.23l-.12.04s-.05.05-.11.07c-1.76.84-3.5,1.63-5.24,2.46h-.03c-.18.07-.32.15-.48.23l-.09.03c-1.71.79-3.42,1.58-5.11,2.36-.14.08-.26.12-.4.19-1.83.83-3.6,1.63-5.4,2.45t-.06.02c-2.75,1.23-5.47,2.44-8.14,3.61-.06.02-.11.07-.17.09-8.04,3.51-15.74,6.78-23.06,9.79l-.21.07c-14.82,6.08-28.01,11.11-38.96,15.07-.03,0-.05.05-.07.09-36.98,15.01-19.29,35.43-15.26,36.22-8.14.39-17.81-23.3-20.12-29.27t-.02-.06c-.37-.83-.79-1.81-1.26-2.97-.02-.06-.04-.12-.09-.17l-.1-.3c-.12-.26-.23-.52-.36-.8-.05-.15-.13-.29-.17-.44-.04-.12-.1-.2-.14-.32l-.02-.06c-.49-1.19-1.05-2.51-1.66-3.99-.08-.14-.13-.29-.2-.43-.05-.15-.09-.27-.16-.38-.27-.73-.57-1.45-.92-2.23l-.03-.09c-.07-.21-.16-.38-.22-.58-.09-.17-.16-.38-.24-.54-.36-.9-.75-1.79-1.13-2.75-.02-.06-.06-.08-.08-.14-.05-.15-.11-.33-.18-.46-.37-.93-.78-1.88-1.17-2.87-.09-.17-.14-.32-.21-.46l-.07-.21c-.27-.63-.56-1.33-.82-2-.12-.26-.22-.49-.31-.75-.11-.23-.18-.43-.28-.66-.03-.09-.06-.18-.12-.26-1.03-2.55-2.16-5.3-3.4-8.31v-.03c-.18-.44-.35-.84-.52-1.28-.08-.14-.14-.32-.19-.49-.57-1.36-1.14-2.78-1.75-4.25-.03-.09-.09-.17-.12-.26t-.02-.06c-.72-1.8-1.5-3.68-2.3-5.65-.04-.12-.12-.26-.16-.38-.06-.18-.16-.41-.22-.58-1.31-3.21-2.68-6.61-4.16-10.23-.1-.2-.16-.41-.27-.63-.1-.3-.22-.58-.34-.84-.81-1.97-1.59-3.98-2.44-6.06-.22-.48-.41-.95-.6-1.44-.2-.52-.34-1.04-.4-1.54-.02-.16,0-.3-.02-.45-.03-.38-.04-.74-.01-1.14.02-.14.04-.28.06-.41.07-.38.2-.79.34-1.16.03-.11.04-.18.07-.29.3-.69.72-1.32,1.22-1.91.13-.11.22-.24.35-.34.15-.15.31-.26.49-.42.19-.13.38-.25.59-.39.13-.11.27-.19.41-.26.37-.18.77-.35,1.19-.49l.06-.02c4.56-1.32,9.12-2.71,13.72-4.11,1.28-.42,2.59-.81,3.9-1.24,3.54-1.12,7.1-2.28,10.66-3.44,1.15-.41,2.3-.78,3.46-1.16,4.56-1.52,9.13-3.11,13.68-4.76.82-.3,1.67-.61,2.49-.91,3.79-1.37,7.6-2.77,11.38-4.24,1.35-.5,2.66-1,4-1.53,3.82-1.47,7.6-2.97,11.4-4.5.81-.33,1.62-.66,2.46-1,4.52-1.84,9.05-3.74,13.56-5.7,1.12-.5,2.27-1,3.41-1.51,3.5-1.54,7-3.1,10.51-4.71,1.29-.58,2.57-1.17,3.86-1.75,4.47-2.08,8.97-4.2,13.43-6.41,6.03-2.95,12.03-5.99,17.99-9.15,4.77-2.48,9.51-5.04,14.25-7.63,1.39-.78,2.79-1.6,4.21-2.39,4.04-2.3,8.07-4.63,12.06-6.99,11.99-7.1,23.77-14.55,35.26-22.4,1.67-1.13,3.28-2.32,4.94-3.48,1.66-1.16,3.35-2.31,5-3.47,3.73-2.66,7.4-5.37,11.04-8.1,1.13-.86,2.25-1.75,3.38-2.61,2.59-1.93,5.13-3.9,7.63-5.9,1.26-.97,2.51-1.97,3.76-2.96,2.5-2,4.95-4.04,7.41-6.06,1.11-.92,2.22-1.84,3.3-2.75,3.47-2.94,6.91-5.89,10.26-8.89.49-.42.96-.87,1.45-1.29,2.51-2.26,4.99-4.52,7.42-6.82,3.88-3.6,7.66-7.29,11.38-11,.94-.93,1.86-1.85,2.77-2.77,7.43-7.51,8.4-8.27,15.24-16.18.85-1,8.38-10.39,9.24-11.39.99-1.18,8.12-9.41,9.08-10.61,1.19-1.42,17.83-27.19,34.45-53.08,16.61-25.89,30.93-52.19,32.26-50.64Z"/>
        <path class="cls-5" d="M812.75,894.58c-3.04-10.26-12.93-8.55-12.93-8.55,23.42,3.27-11.26,20.46-11.26,20.46l-.28.31c-49.24,24.37-166.84,79.72-289.21,116.46-12.52,3.76-20.57,13.67-17.46,21.53,8.46,21.42,13.91,35.98,17.32,45.39.76,2.11,1.95,3.93,3.41,5.45,5,6.16,11.2,5.18,32.19,5.03-9.28.19-4.08-4.75.38-6.99,62.53-22.65,204.13-75.24,275.83-112.44,11.75-6.1,18.34-16.04,16.38-24.54l-14.31-62.1h-.07Z"/>
      </g>
      <g>
        <path class="cls-5" d="M284.35,378.02l-25.81-25.84s12-6.47,20.2-5.17c8.2,1.29,34.26,4.13,34.26,4.13l.93,36.96-29.58-10.08Z"/>
        <path class="cls-5" d="M544.15,509.26l-8.89.23-42.55,1.07-.18-6.75s7.77.81,12.42-2.8c4.66-3.63,24.34-26.11,26.86-45.17,2.53-19.05.45-31.49-4.97-38.86-5.44-7.35-19.37-14.76-19.37-14.76,0,0,6.14,55.33-27.6,94.67l-14.06.36s34.79-73.36,21.98-105.7l-61.96-25.43s8.36,40.45-30.6,107.75l-12.86-7.68s25.58-56.19,22.94-101.49l-56.95,1.44v.03c-.02.11-.06.53-.15,1.2v.02c-.7,5.67-4.37,30.09-18.11,57.57l-1.85-13.2s7.97-20.08,11.47-35.78c.81-3.6,1.38-6.96,1.55-9.8.1-1.38.1-2.64-.02-3.74l-19.73.5s-.15,8.52-1.59,18.34c-1.04,7.18-2.75,15.06-5.62,20.8l1.25,1.49,4.23,5.07,2.53,35.54-9.01.63,1.91-4.73-.75-29.22-2.96-2.12-8.76-6.3-26.95-19.34-6.77,9.17,8.97,9.02s-3.32,6.84-3.27,8.57c.03,1.75.49,9.49.49,9.49l2.9,1.18s3.08-8.31,5.75-14.92l10.79,7.97,6.41,4.75c-.84,2.06-1.46,3.76-1.39,4.28.03.36.1,1.18.18,2.25v.02c.28,3.84.76,10.84.76,10.84l2.38-.06-8.08,6.84s-3.47-1.93-4.02-3.6c-.05-.1-.06-.21-.08-.31-.16-1.75-3.34-8.54-4.89-10.76-.1-.13-.21-.28-.37-.44-2.3-2.46-11.05-7.69-17.3-6.28-6.62,1.51-9.52,11.74-9.52,11.74,0,0-9.65.4-12.25,6.98-2.58,6.56-1.21,20.77-1.21,20.77l12.02-19.05s3.68-2.33,8.52,1.3c3.26,2.43,4.73,6.37,5.35,10.66.29,2.11.37,4.29.34,6.43l-.1,6.51-6.01.15-14.22.36.1,3.76-7.48.18s-2.06,7.55.21,8.49c.92.4,7.61,2.64,15.21,5.15,3.05,1.02,6.22,2.07,9.25,3.06,7.87,2.61,14.61,4.81,14.61,4.81,0,0,6.43-12.67,8.42-12.96,1.99-.31,5.98-.4,5.98-.4l-5.22,20.62,2.24,9.7,17.74-.45-2.53,9.05.44,17.49,7.18,6.82-.55-21.98,13.51-14.21,144.98-3.66.18,6.61,8.96,8.52,3.74-.1s1.86,14.2-2.92,22.82c0,0,4.5.63,8.63-4.21l6.4-.16,33.59-.86,10.97-.28s3.43-4.83,3.94-11.34c.32-4.28-.6-9.28-4.58-14.12ZM332.57,473.27l-3.26,9.59s-.34,12.83-.32,13.49c.02.66-5.99-6.19-5.99-6.19l.08-29.82,5.67-.15,15.94,11.1-12.12,1.98ZM379.64,496.74l-.92,2.69-29.64.75-.28-11.16,4.15-.84-.31-11.95,36.75,23.78-9.75-3.26Z"/>
        <path class="cls-5" d="M614.94,517.64c3.35,13.91-6.41,23.15-6.41,23.15l-41.97,1.07c-10.51-5.38-10.93-16.57-9.14-25.62,1.47-7.53,4.49-13.59,4.49-13.59,0,0-9.49.32-19.21.62-9.99.29-20.25.57-20.75.4-1-.31,23.49-32.93,23.49-32.93l-.84-33.63,19.08-9.48-.84-33.64,9.28-1.9,1.99,78.93,2.67-.08-1-39.29,8.33-.21-.47-18.64,4-.1.83,32.64,5.65-.15.18,6.88.73,29.24.63,24.91s.78-.11,2.01-.16l-.68-26.77-.39-15.5,13.82,1,3.95.29c.02-1.44.02-3.08.02-4.81,0-8.49-.15-19.23-.83-19.74-.44-.34-4.23-.83-8.62-1.3-6.61-.71-14.58-1.36-14.58-1.36l-.13-4.75-.03-1.75s12.65.39,19.76,1.38c1.41.19,2.59.42,3.42.66,5.07,1.49,8,5.8,8,5.8l.31,12.41.36,14.03,1.07,41.95-15.58.4c3.22,1.6,6.19,4.5,7.42,9.64Z"/>
        <path class="cls-5" d="M648.58,497.38c-.96,1.52-9.15,13.73-10.07,17-.92,3.27-2.61,15.56-2.61,15.56l-9.56,10.41-8.66.22s4.94-12.04,7.73-20.61c2.01-6.21,1.71-36.72,1.4-53.09l42.88,2.24,6.71,14.91-30.03-1.49-13.1,15.32c.43-.35,14.22-11.51,15.52-11.71,1.32-.2,37.78,1.55,38.08,3.79.31,2.24,2.19,27.19,2.19,27.19,0,0-10.47-18.73-11.23-19.21s-28.29-2.04-29.25-.51Z"/>
        <path class="cls-5" d="M671.08,553.52c5.33-4.68,8.73-12.71,8.49-21.75-.34-14.11-9.43-25.35-20.28-25.07-10.84.28-19.32,11.95-18.98,26.06.19,7.27,2.69,13.77,6.53,18.32-31.76-2.3-78.62-3.29-131.94-2.45-8.1.13-16.34.29-24.7.5-3.63.08-7.24.19-10.82.29-.99.03-1.98.06-2.96.1.52-2.43.76-4.94.7-7.53-.45-18.09-15.63-32.38-33.88-31.92-18.25.47-32.69,15.5-32.22,33.59.06,3.01.55,5.91,1.39,8.67-7.99.47-15.7.97-23.08,1.49.86-3.06,1.28-6.3,1.2-9.64-.45-18.09-15.61-32.38-33.89-31.92-18.25.47-32.67,15.5-32.22,33.58.13,5,1.38,9.72,3.5,13.91-23.15,3.11-36.72,6.56-36.64,9.9.15,6.53,52.33,10.8,125.98,11.22,13.95.08,28.65.02,43.93-.19,9.72-.13,19.66-.31,29.79-.57,110.08-2.77,199.13-11.95,198.92-20.51-.06-2.35-6.8-4.39-18.81-6.07ZM370.57,555.25c-3,3.48-7.37,5.73-12.29,5.85-4.1.11-7.9-1.28-10.88-3.68-3.76-3.01-6.22-7.65-6.35-12.88-.24-9.38,7.09-17.17,16.38-17.41,9.3-.23,17.01,7.18,17.25,16.57.11,4.41-1.46,8.47-4.1,11.55ZM444.01,524.94c9.3-.23,17.01,7.19,17.25,16.57.06,3.11-.68,6.04-2.07,8.58-2.77,5.13-8.1,8.67-14.32,8.81-5.99.16-11.34-2.88-14.43-7.56-1.7-2.58-2.72-5.67-2.82-8.99-.23-9.38,7.09-17.17,16.39-17.41ZM660.5,544.83c-5.52.13-10.14-5.69-10.32-13.01-.18-7.32,4.13-13.36,9.65-13.51,5.52-.15,10.14,5.69,10.32,13.01.18,7.32-4.13,13.36-9.65,13.51Z"/>
      </g>
    </g>
  </g>
</svg>